# xmcd CD database file
#
# Track frame offsets:
#	150
#	11262
#	22087
#	37912
#	52575
#	68312
#	81412
#	94725
#	107537
#	124962
#
# Disc length: 1884 seconds
#
# Revision: 1
# Processed by: cddbd v1.5.2PL0 Copyright (c) Steve Scherf et al.
# Submitted via: CDex 1.51
#
DISCID=6b075a0a
DTITLE=Alan Jackson - A Lot About Livin' (And A Little 'Bout Love)
DYEAR=1992
DGENRE=Country
TTITLE0=Chattahoochee
TTITLE1=She's Got The Rythm (And  I Got The Blues)
TTITLE2=Tonight I Climbed The Wall
TTITLE3=I Don't Need The Booze (To Get A Buzz On)
TTITLE4=(Who Says) You Can't Have It All
TTITLE5=Up To My Ears In Tears
TTITLE6=Tropical Depression
TTITLE7=She Likes It Too
TTITLE8=If It Ain't One Thing (It's You)
TTITLE9=Mercury Blues
EXTD=YEAR: 1992
EXTT0=
EXTT1=
EXTT2=
EXTT3=
EXTT4=
EXTT5=
EXTT6=
EXTT7=
EXTT8=
EXTT9=
PLAYORDER=
